<mxfile host="app.diagrams.net" agent="Mozilla/5.0 (Macintosh; Intel Mac OS X 10_15_7) AppleWebKit/537.36 (KHTML, like Gecko) Chrome/130.0.813.782 Safari/537.36" version="26.1.3" pages="2">
  <diagram name="Content Upload and RAG Flow" id="content-rag-flow">
    <mxGraphModel dx="2007" dy="1016" grid="1" gridSize="10" guides="1" tooltips="1" connect="1" arrows="1" fold="1" page="1" pageScale="1" pageWidth="1400" pageHeight="1000" math="0" shadow="0">
      <root>
        <mxCell id="root-0" />
        <mxCell id="root-1" parent="root-0" />
        <mxCell id="title-1" value="Content Upload and RAG Service Flow" style="text;html=1;strokeColor=none;fillColor=none;align=center;verticalAlign=middle;whiteSpace=wrap;rounded=0;fontSize=24;fontStyle=1;fontFamily=Arial;" parent="root-1" vertex="1">
          <mxGeometry x="400" y="20" width="600" height="40" as="geometry" />
        </mxCell>
        <mxCell id="frontend-layer" value="Frontend Components" style="swimlane;whiteSpace=wrap;html=1;fillColor=#dd0031;strokeColor=#dd0031;fontColor=white;startSize=23;fontSize=14;rounded=0;" parent="root-1" vertex="1">
          <mxGeometry x="40" y="90" width="1320" height="215" as="geometry" />
        </mxCell>
        <mxCell id="input-forms" value="Input Forms" style="swimlane;whiteSpace=wrap;html=1;fillColor=#f5f5f5;strokeColor=#666666;fontColor=#333333;rounded=0;fontSize=12;startSize=23;" parent="frontend-layer" vertex="1">
          <mxGeometry x="20" y="35" width="420" height="180" as="geometry" />
        </mxCell>
        <mxCell id="upload-form" value="Upload Form&#xa;{file, metadata}&#xa;[progress, status]" style="rounded=1;whiteSpace=wrap;html=1;fillColor=#dae8fc;strokeColor=#6c8ebf;fontSize=11;spacing=4;" parent="input-forms" vertex="1">
          <mxGeometry x="10" y="30" width="120" height="50" as="geometry" />
        </mxCell>
        <mxCell id="drive-form" value="Drive Import&#xa;{fileId, path}&#xa;[status]" style="rounded=1;whiteSpace=wrap;html=1;fillColor=#4285f4;strokeColor=#4285f4;fontColor=white;" parent="input-forms" vertex="1">
          <mxGeometry x="140" y="30" width="120" height="50" as="geometry" />
        </mxCell>
        <mxCell id="bulk-form" value="Bulk Upload&#xa;{excel, config}&#xa;[batch status]" style="rounded=1;whiteSpace=wrap;html=1;fillColor=#70AD47;strokeColor=#70AD47;fontColor=white;" parent="input-forms" vertex="1">
          <mxGeometry x="270" y="30" width="120" height="50" as="geometry" />
        </mxCell>
        <mxCell id="group-upload" value="Upload Process" style="rounded=1;whiteSpace=wrap;html=1;fillColor=#dd003108;strokeColor=#dd0031;strokeWidth=1;dashed=1;" parent="input-forms" vertex="1">
          <mxGeometry x="-20" width="440" height="170" as="geometry" />
        </mxCell>
        <mxCell id="ui-components" value="UI Components" style="swimlane;whiteSpace=wrap;html=1;fillColor=#f5f5f5;strokeColor=#666666;fontColor=#333333;rounded=0;fontSize=12;startSize=23;" parent="frontend-layer" vertex="1">
          <mxGeometry x="460" y="35" width="840" height="110" as="geometry" />
        </mxCell>
        <mxCell id="metadata-editor" value="Metadata Editor&#xa;{title, tags, type}&#xa;[validation]" style="rounded=1;whiteSpace=wrap;html=1;fillColor=#dae8fc;strokeColor=#6c8ebf;" parent="ui-components" vertex="1">
          <mxGeometry x="10" y="30" width="120" height="50" as="geometry" />
        </mxCell>
        <mxCell id="progress-tracker" value="Progress Tracker&#xa;{status, stage}&#xa;[completion %]" style="rounded=1;whiteSpace=wrap;html=1;fillColor=#dae8fc;strokeColor=#6c8ebf;" parent="ui-components" vertex="1">
          <mxGeometry x="140" y="30" width="120" height="50" as="geometry" />
        </mxCell>
        <mxCell id="toast-notif" value="Toast Notifications&#xa;{message, type}&#xa;[auto-dismiss]" style="rounded=1;whiteSpace=wrap;html=1;fillColor=#dae8fc;strokeColor=#6c8ebf;" parent="ui-components" vertex="1">
          <mxGeometry x="270" y="30" width="120" height="50" as="geometry" />
        </mxCell>
        <mxCell id="status-dashboard" value="Status Dashboard&#xa;{filters, sort}&#xa;[real-time]" style="rounded=1;whiteSpace=wrap;html=1;fillColor=#dae8fc;strokeColor=#6c8ebf;" parent="ui-components" vertex="1">
          <mxGeometry x="400" y="30" width="120" height="50" as="geometry" />
        </mxCell>
        <mxCell id="batch-monitor" value="Batch Monitor&#xa;{progress, errors}&#xa;[summary]" style="rounded=1;whiteSpace=wrap;html=1;fillColor=#dae8fc;strokeColor=#6c8ebf;" parent="ui-components" vertex="1">
          <mxGeometry x="530" y="30" width="120" height="50" as="geometry" />
        </mxCell>
        <mxCell id="error-display" value="Error Display&#xa;{details, retry}&#xa;[actions]" style="rounded=1;whiteSpace=wrap;html=1;fillColor=#dae8fc;strokeColor=#6c8ebf;" parent="ui-components" vertex="1">
          <mxGeometry x="660" y="30" width="120" height="50" as="geometry" />
        </mxCell>
        <mxCell id="api-layer" value="API Layer" style="swimlane;whiteSpace=wrap;html=1;fillColor=#2c3e50;strokeColor=#2c3e50;fontColor=white;startSize=23;fontSize=14;rounded=0;" parent="root-1" vertex="1">
          <mxGeometry x="40" y="290" width="1320" height="140" as="geometry" />
        </mxCell>
        <mxCell id="upload-endpoints" value="Upload Endpoints" style="swimlane;whiteSpace=wrap;html=1;fillColor=#34495e;strokeColor=#34495e;fontColor=white;" parent="api-layer" vertex="1">
          <mxGeometry x="20" y="40" width="640" height="100" as="geometry" />
        </mxCell>
        <mxCell id="upload-api" value="/api/upload&#xa;POST {file, metadata}&#xa;→ {docId, status}" style="rounded=1;whiteSpace=wrap;html=1;fillColor=#34495e;strokeColor=#ffffff;fontColor=white;" parent="upload-endpoints" vertex="1">
          <mxGeometry x="10" y="30" width="140" height="50" as="geometry" />
        </mxCell>
        <mxCell id="drive-api" value="/api/drive/import&#xa;POST {fileId, config}&#xa;→ {docId, status}" style="rounded=1;whiteSpace=wrap;html=1;fillColor=#34495e;strokeColor=#ffffff;fontColor=white;" parent="upload-endpoints" vertex="1">
          <mxGeometry x="170" y="30" width="140" height="50" as="geometry" />
        </mxCell>
        <mxCell id="bulk-api" value="/api/bulk/upload&#xa;POST {excel, config}&#xa;→ {batchId, count}" style="rounded=1;whiteSpace=wrap;html=1;fillColor=#34495e;strokeColor=#ffffff;fontColor=white;" parent="upload-endpoints" vertex="1">
          <mxGeometry x="330" y="30" width="140" height="50" as="geometry" />
        </mxCell>
        <mxCell id="status-api" value="/api/status/:id&#xa;GET {docId}&#xa;→ {status, progress}" style="rounded=1;whiteSpace=wrap;html=1;fillColor=#34495e;strokeColor=#ffffff;fontColor=white;" parent="upload-endpoints" vertex="1">
          <mxGeometry x="490" y="30" width="140" height="50" as="geometry" />
        </mxCell>
        <mxCell id="notification-services" value="Notification Services" style="swimlane;whiteSpace=wrap;html=1;fillColor=#34495e;strokeColor=#34495e;fontColor=white;" parent="api-layer" vertex="1">
          <mxGeometry x="680" y="40" width="620" height="100" as="geometry" />
        </mxCell>
        <mxCell id="email-service" value="Email Service&#xa;{template, data}&#xa;→ {sent, error}" style="rounded=1;whiteSpace=wrap;html=1;fillColor=#34495e;strokeColor=#ffffff;fontColor=white;" parent="notification-services" vertex="1">
          <mxGeometry x="10" y="30" width="140" height="50" as="geometry" />
        </mxCell>
        <mxCell id="websocket-service" value="WebSocket Service&#xa;{event, payload}&#xa;→ real-time" style="rounded=1;whiteSpace=wrap;html=1;fillColor=#34495e;strokeColor=#ffffff;fontColor=white;" parent="notification-services" vertex="1">
          <mxGeometry x="170" y="30" width="140" height="50" as="geometry" />
        </mxCell>
        <mxCell id="queue-service" value="Queue Service&#xa;{job, priority}&#xa;→ {jobId, status}" style="rounded=1;whiteSpace=wrap;html=1;fillColor=#34495e;strokeColor=#ffffff;fontColor=white;" parent="notification-services" vertex="1">
          <mxGeometry x="330" y="30" width="140" height="50" as="geometry" />
        </mxCell>
        <mxCell id="error-service" value="Error Handler&#xa;{error, context}&#xa;→ {logged, notified}" style="rounded=1;whiteSpace=wrap;html=1;fillColor=#34495e;strokeColor=#ffffff;fontColor=white;" parent="notification-services" vertex="1">
          <mxGeometry x="490" y="30" width="120" height="50" as="geometry" />
        </mxCell>
        <mxCell id="service-layer" value="Service Layer" style="swimlane;whiteSpace=wrap;html=1;fillColor=#4285f4;strokeColor=#4285f4;fontColor=white;startSize=23;fontSize=14;rounded=0;" parent="root-1" vertex="1">
          <mxGeometry x="40" y="470" width="1320" height="240" as="geometry" />
        </mxCell>
        <mxCell id="doc-processing" value="Document Processing Pipeline" style="swimlane;whiteSpace=wrap;html=1;fillColor=#34a853;strokeColor=#ffffff;fontColor=white;rounded=0;fontSize=12;" parent="service-layer" vertex="1">
          <mxGeometry x="20" y="40" width="640" height="180" as="geometry" />
        </mxCell>
        <mxCell id="extract" value="1. Extract&#xa;{raw → text}&#xa;[mime, size]" style="rounded=1;whiteSpace=wrap;html=1;fillColor=#34a853;strokeColor=#ffffff;fontColor=white;fontSize=11;spacing=4;" parent="doc-processing" vertex="1">
          <mxGeometry x="20" y="40" width="120" height="60" as="geometry" />
        </mxCell>
        <mxCell id="chunk" value="2. Chunk&#xa;{text → segments}&#xa;[size, overlap]" style="rounded=1;whiteSpace=wrap;html=1;fillColor=#34a853;strokeColor=#ffffff;fontColor=white;" parent="doc-processing" vertex="1">
          <mxGeometry x="180" y="40" width="120" height="60" as="geometry" />
        </mxCell>
        <mxCell id="embed" value="3. Embed&#xa;{segments → vectors}&#xa;[model, dim]" style="rounded=1;whiteSpace=wrap;html=1;fillColor=#34a853;strokeColor=#ffffff;fontColor=white;" parent="doc-processing" vertex="1">
          <mxGeometry x="340" y="40" width="120" height="60" as="geometry" />
        </mxCell>
        <mxCell id="index" value="4. Index&#xa;{vectors → store}&#xa;[index, config]" style="rounded=1;whiteSpace=wrap;html=1;fillColor=#34a853;strokeColor=#ffffff;fontColor=white;" parent="doc-processing" vertex="1">
          <mxGeometry x="500" y="40" width="120" height="60" as="geometry" />
        </mxCell>
        <mxCell id="validate" value="5. Validate&#xa;{all steps}&#xa;[checks, fixes]" style="rounded=1;whiteSpace=wrap;html=1;fillColor=#34a853;strokeColor=#ffffff;fontColor=white;" parent="doc-processing" vertex="1">
          <mxGeometry x="260" y="110" width="120" height="60" as="geometry" />
        </mxCell>
        <mxCell id="rag-pipeline" value="Tags and Summary" style="swimlane;whiteSpace=wrap;html=1;fillColor=#ea4335;strokeColor=#ffffff;fontColor=white;" parent="service-layer" vertex="1">
          <mxGeometry x="680" y="40" width="640" height="200" as="geometry" />
        </mxCell>
        <mxCell id="analyze" value="1. Analyze&#xa;Content&#xa;[depth, focus]" style="rounded=1;whiteSpace=wrap;html=1;fillColor=#ea4335;strokeColor=#ffffff;fontColor=white;" parent="rag-pipeline" vertex="1">
          <mxGeometry x="20" y="40" width="120" height="60" as="geometry" />
        </mxCell>
        <mxCell id="summarize" value="2. Generate&#xa;Summary&#xa;[length, style]" style="rounded=1;whiteSpace=wrap;html=1;fillColor=#ea4335;strokeColor=#ffffff;fontColor=white;" parent="rag-pipeline" vertex="1">
          <mxGeometry x="180" y="40" width="120" height="60" as="geometry" />
        </mxCell>
        <mxCell id="generate-tags" value="3. Generate&#xa;Tags&#xa;[categories]" style="rounded=1;whiteSpace=wrap;html=1;fillColor=#ea4335;strokeColor=#ffffff;fontColor=white;" parent="rag-pipeline" vertex="1">
          <mxGeometry x="340" y="40" width="120" height="60" as="geometry" />
        </mxCell>
        <mxCell id="store-results" value="4. Store&#xa;Results&#xa;[versioned]" style="rounded=1;whiteSpace=wrap;html=1;fillColor=#ea4335;strokeColor=#ffffff;fontColor=white;" parent="rag-pipeline" vertex="1">
          <mxGeometry x="500" y="40" width="100" height="60" as="geometry" />
        </mxCell>
        <mxCell id="quality-check" value="6. Quality&#xa;Check&#xa;[metrics]" style="rounded=1;whiteSpace=wrap;html=1;fillColor=#ea4335;strokeColor=#ffffff;fontColor=white;" parent="rag-pipeline" vertex="1">
          <mxGeometry x="260" y="110" width="100" height="60" as="geometry" />
        </mxCell>
        <mxCell id="group-rag" value="" style="rounded=1;whiteSpace=wrap;html=1;fillColor=none;strokeColor=#ea4335;strokeWidth=2;dashed=1;opacity=30;" parent="rag-pipeline" vertex="1">
          <mxGeometry x="-10" y="-30" width="640" height="240" as="geometry" />
        </mxCell>
        <mxCell id="storage-layer" value="Google Cloud Platform" style="swimlane;whiteSpace=wrap;html=1;fillColor=#4285f4;strokeColor=#4285f4;fontColor=white;startSize=23;fontSize=14;rounded=0;" parent="root-1" vertex="1">
          <mxGeometry x="40" y="730" width="1320" height="160" as="geometry" />
        </mxCell>
        <mxCell id="cloud-storage" value="Cloud Storage&#xa;Raw Files&#xa;{docId: file, version}" style="shape=cylinder3;whiteSpace=wrap;html=1;boundedLbl=1;backgroundOutline=1;size=12;fillColor=#4285f4;strokeColor=#ffffff;fontColor=white;fontSize=11;spacing=4;" parent="storage-layer" vertex="1">
          <mxGeometry x="20" y="40" width="160" height="100" as="geometry" />
        </mxCell>
        <mxCell id="firestore" value="Firestore&#xa;Metadata&#xa;{docId: metadata, history}" style="shape=cylinder3;whiteSpace=wrap;html=1;boundedLbl=1;backgroundOutline=1;size=15;fillColor=#34a853;strokeColor=#ffffff;fontColor=white;" parent="storage-layer" vertex="1">
          <mxGeometry x="200" y="40" width="160" height="100" as="geometry" />
        </mxCell>
        <mxCell id="vector-store" value="Vector Store&#xa;Embeddings&#xa;{docId: vector[], config}" style="shape=cylinder3;whiteSpace=wrap;html=1;boundedLbl=1;backgroundOutline=1;size=15;fillColor=#ea4335;strokeColor=#ffffff;fontColor=white;" parent="storage-layer" vertex="1">
          <mxGeometry x="380" y="40" width="160" height="100" as="geometry" />
        </mxCell>
        <mxCell id="vertex-ai" value="Vertex AI&#xa;LLM and Embeddings&#xa;API Services" style="shape=hexagon;perimeter=hexagonPerimeter2;whiteSpace=wrap;html=1;fixedSize=1;fillColor=#4285f4;strokeColor=#ffffff;fontColor=white;" parent="storage-layer" vertex="1">
          <mxGeometry x="560" y="40" width="160" height="100" as="geometry" />
        </mxCell>
        <mxCell id="pub-sub" value="Pub/Sub&#xa;Event Bus&#xa;{topics, subscriptions}" style="shape=process;whiteSpace=wrap;html=1;backgroundOutline=1;fillColor=#4285f4;strokeColor=#ffffff;fontColor=white;" parent="storage-layer" vertex="1">
          <mxGeometry x="740" y="40" width="160" height="100" as="geometry" />
        </mxCell>
        <mxCell id="flow-upload-1" value="" style="endArrow=classic;html=1;rounded=1;curved=0;exitX=0.5;exitY=1;entryX=0.5;entryY=0;strokeColor=#dd0031;strokeWidth=1.5;spacing=4;" parent="root-1" source="upload-form" target="upload-api" edge="1">
          <mxGeometry relative="1" as="geometry">
            <Array as="points">
              <mxPoint x="80" y="300" />
            </Array>
          </mxGeometry>
        </mxCell>
        <mxCell id="flow-drive-1" value="" style="endArrow=classic;html=1;rounded=1;curved=1;exitX=0.5;exitY=1;entryX=0.5;entryY=0;strokeColor=#4285f4;strokeWidth=2;" parent="root-1" source="drive-form" target="drive-api" edge="1">
          <mxGeometry relative="1" as="geometry" />
        </mxCell>
        <mxCell id="flow-bulk-1" value="" style="endArrow=classic;html=1;rounded=1;curved=1;exitX=0.5;exitY=1;entryX=0.5;entryY=0;strokeColor=#70AD47;strokeWidth=2;" parent="root-1" source="bulk-form" target="bulk-api" edge="1">
          <mxGeometry relative="1" as="geometry" />
        </mxCell>
        <mxCell id="flow-extract-1" value="" style="endArrow=classic;html=1;rounded=1;curved=1;exitX=0.5;exitY=1;entryX=0.5;entryY=0;strokeColor=#34a853;strokeWidth=2;" parent="root-1" source="upload-api" target="extract" edge="1">
          <mxGeometry relative="1" as="geometry" />
        </mxCell>
        <mxCell id="flow-chunk-1" value="" style="endArrow=classic;html=1;rounded=1;curved=1;exitX=1;exitY=0.5;entryX=0;entryY=0.5;strokeColor=#34a853;strokeWidth=2;" parent="root-1" source="extract" target="chunk" edge="1">
          <mxGeometry relative="1" as="geometry" />
        </mxCell>
        <mxCell id="flow-embed-1" value="" style="endArrow=classic;html=1;rounded=1;curved=1;exitX=1;exitY=0.5;entryX=0;entryY=0.5;strokeColor=#34a853;strokeWidth=2;" parent="root-1" source="chunk" target="embed" edge="1">
          <mxGeometry relative="1" as="geometry" />
        </mxCell>
        <mxCell id="flow-index-1" value="" style="endArrow=classic;html=1;rounded=1;curved=1;exitX=1;exitY=0.5;entryX=0;entryY=0.5;strokeColor=#34a853;strokeWidth=2;" parent="root-1" source="embed" target="index" edge="1">
          <mxGeometry relative="1" as="geometry" />
        </mxCell>
        <mxCell id="flow-validate-1" value="" style="endArrow=classic;html=1;rounded=1;curved=1;exitX=1;exitY=0.5;entryX=0;entryY=0.5;strokeColor=#34a853;strokeWidth=2;" parent="root-1" source="index" target="validate" edge="1">
          <mxGeometry relative="1" as="geometry" />
        </mxCell>
        <mxCell id="flow-storage-1" value="" style="endArrow=classic;html=1;rounded=1;curved=1;exitX=0.5;exitY=1;entryX=0.5;entryY=0;strokeColor=#4285f4;strokeWidth=2;" parent="root-1" source="extract" target="cloud-storage" edge="1">
          <mxGeometry relative="1" as="geometry" />
        </mxCell>
        <mxCell id="flow-firestore-1" value="" style="endArrow=classic;html=1;rounded=1;curved=1;exitX=0.5;exitY=1;entryX=0.5;entryY=0;strokeColor=#ea4335;strokeWidth=2;" parent="root-1" source="generate-tags" target="firestore" edge="1">
          <mxGeometry relative="1" as="geometry" />
        </mxCell>
        <mxCell id="flow-vector-1" value="" style="endArrow=classic;html=1;rounded=1;curved=1;exitX=0.5;exitY=1;entryX=0.5;entryY=0;strokeColor=#ea4335;strokeWidth=2;" parent="root-1" source="index" target="vector-store" edge="1">
          <mxGeometry relative="1" as="geometry" />
        </mxCell>
        <mxCell id="flow-websocket-1" value="" style="endArrow=classic;html=1;rounded=1;curved=0;exitX=0;exitY=0.5;entryX=1;entryY=0.5;strokeColor=#34495e;strokeWidth=1.5;dashed=1;dashPattern=3 3;" parent="root-1" source="websocket-service" target="progress-tracker" edge="1">
          <mxGeometry relative="1" as="geometry" />
        </mxCell>
        <mxCell id="flow-email-1" value="" style="endArrow=classic;html=1;rounded=1;curved=1;exitX=0;exitY=0.5;entryX=1;entryY=0.5;strokeColor=#34495e;strokeWidth=2;dashed=1;" parent="root-1" source="email-service" target="status-dashboard" edge="1">
          <mxGeometry relative="1" as="geometry" />
        </mxCell>
        <mxCell id="legend" value="Legend" style="swimlane;fontStyle=1;childLayout=stackLayout;horizontal=1;startSize=23;horizontalStack=0;resizeParent=1;resizeParentMax=0;resizeLast=0;collapsible=1;marginBottom=0;whiteSpace=wrap;html=1;fillColor=#ffffff;strokeColor=#666666;fontColor=#333333;" parent="root-1" vertex="1">
          <mxGeometry x="1160" y="790" width="180" height="80" as="geometry" />
        </mxCell>
        <mxCell id="legend-content" value="→ Data Flow&#xa;{} Request/Event Payload&#xa;[] Configuration/Metadata" style="text;strokeColor=none;fillColor=none;align=left;verticalAlign=middle;spacingLeft=4;spacingRight=4;overflow=hidden;points=[[0,0.5],[1,0.5]];portConstraint=eastwest;rotatable=0;whiteSpace=wrap;html=1;" parent="legend" vertex="1">
          <mxGeometry y="30" width="180" height="50" as="geometry" />
        </mxCell>
        <mxCell id="header-frontend" value="User Interface Layer" style="text;html=1;strokeColor=none;fillColor=none;align=left;verticalAlign=middle;whiteSpace=wrap;rounded=0;fontSize=14;fontStyle=1;fontColor=#dd0031;" parent="root-1" vertex="1">
          <mxGeometry x="40" y="60" width="200" height="30" as="geometry" />
        </mxCell>
        <mxCell id="header-api" value="API and Services Layer" style="text;html=1;strokeColor=none;fillColor=none;align=left;verticalAlign=middle;whiteSpace=wrap;rounded=0;fontSize=14;fontStyle=1;fontColor=#2c3e50;" parent="root-1" vertex="1">
          <mxGeometry x="40" y="260" width="200" height="30" as="geometry" />
        </mxCell>
        <mxCell id="header-processing" value="Processing Layer" style="text;html=1;strokeColor=none;fillColor=none;align=left;verticalAlign=middle;whiteSpace=wrap;rounded=0;fontSize=14;fontStyle=1;fontColor=#4285f4;" parent="root-1" vertex="1">
          <mxGeometry x="40" y="440" width="200" height="30" as="geometry" />
        </mxCell>
        <mxCell id="header-storage" value="Storage Layer" style="text;html=1;strokeColor=none;fillColor=none;align=left;verticalAlign=middle;whiteSpace=wrap;rounded=0;fontSize=14;fontStyle=1;fontColor=#4285f4;" parent="root-1" vertex="1">
          <mxGeometry x="40" y="700" width="200" height="30" as="geometry" />
        </mxCell>
        <mxCell id="legend-flow" value="Data Flow Types" style="swimlane;fontStyle=1;childLayout=stackLayout;horizontal=1;startSize=23;horizontalStack=0;resizeParent=1;resizeParentMax=0;resizeLast=0;collapsible=1;marginBottom=0;whiteSpace=wrap;html=1;fillColor=#ffffff;strokeColor=#666666;fontColor=#333333;" parent="root-1" vertex="1">
          <mxGeometry x="960" y="790" width="180" height="80" as="geometry" />
        </mxCell>
        <mxCell id="legend-flow-content" value="→ Direct Data Flow&#xa;⇢ Event/Notification Flow&#xa;{} Payload, [] Metadata" style="text;strokeColor=none;fillColor=none;align=left;verticalAlign=middle;spacingLeft=4;spacingRight=4;overflow=hidden;points=[[0,0.5],[1,0.5]];portConstraint=eastwest;rotatable=0;whiteSpace=wrap;html=1;" parent="legend-flow" vertex="1">
          <mxGeometry y="30" width="180" height="50" as="geometry" />
        </mxCell>
        <mxCell id="group-process" value="" style="rounded=1;whiteSpace=wrap;html=1;fillColor=none;strokeColor=#34a853;strokeWidth=2;dashed=1;opacity=30;" parent="root-1" vertex="1">
          <mxGeometry x="30" y="460" width="660" height="240" as="geometry" />
        </mxCell>
      </root>
    </mxGraphModel>
  </diagram>
  <diagram id="p0znK9ECEg0VsjOvS3RT" name="Page-2">
    <mxGraphModel dx="2007" dy="1016" grid="1" gridSize="10" guides="1" tooltips="1" connect="1" arrows="1" fold="1" page="1" pageScale="1" pageWidth="850" pageHeight="1100" math="0" shadow="0">
      <root>
        <mxCell id="0" />
        <mxCell id="1" parent="0" />
      </root>
    </mxGraphModel>
  </diagram>
</mxfile>
